<svg width="580" height="819" viewBox="0 0 580 819" fill="none" xmlns="http://www.w3.org/2000/svg">
<rect width="580" height="818.477" fill="#E0E0E0"/>
<path d="M242.528 324.543C242.528 334.234 238.776 343.528 232.099 350.381C225.421 357.233 216.365 361.083 206.922 361.083C197.478 361.083 188.422 357.233 181.744 350.381C175.067 343.528 171.316 334.234 171.316 324.543C171.316 314.852 175.067 305.558 181.744 298.705C188.422 291.852 197.478 288.003 206.922 288.003C216.365 288.003 225.421 291.852 232.099 298.705C238.776 305.558 242.528 314.852 242.528 324.543Z" fill="#9B9A9A"/>
<path d="M147.576 214.924C134.985 214.924 122.91 220.057 114.006 229.194C105.103 238.331 100.101 250.723 100.101 263.644V507.246C100.101 520.167 105.103 532.559 114.006 541.696C122.91 550.833 134.985 555.966 147.576 555.966H432.424C445.015 555.966 457.09 550.833 465.993 541.696C474.897 532.559 479.898 520.167 479.898 507.246V263.644C479.898 250.723 474.897 238.331 465.993 229.194C457.09 220.057 445.015 214.924 432.424 214.924H147.576ZM432.424 239.284C438.719 239.284 444.757 241.851 449.208 246.419C453.66 250.987 456.161 257.184 456.161 263.644V421.985L366.505 374.556C364.279 373.412 361.759 373.015 359.301 373.421C356.843 373.828 354.572 375.017 352.809 376.822L264.743 467.198L201.602 424.032C199.322 422.474 196.588 421.773 193.862 422.049C191.137 422.324 188.588 423.558 186.648 425.542L123.839 482.886V263.644C123.839 257.184 126.34 250.987 130.791 246.419C135.243 241.851 141.28 239.284 147.576 239.284H432.424Z" fill="#9B9A9A"/>
</svg>
