<svg width="329" height="491" viewBox="0 0 329 491" fill="none" xmlns="http://www.w3.org/2000/svg">
<path d="M307.295 238.226L311.837 244.666L320.386 231.424L315.844 224.983L307.295 238.226ZM311.57 231.604L315.844 224.983L240.743 118.491L236.469 125.112L232.194 131.733L307.295 238.226L311.57 231.604Z" fill="#585858"/>
<path d="M65.3978 19.962L69.6723 13.3409L60.5884 0.459947L56.3139 7.08099L65.3978 19.962ZM60.8558 13.5215L56.3139 7.08099L-15.5419 118.383L-10.9999 124.824L-6.45795 131.264L65.3978 19.962L60.8558 13.5215Z" fill="#585858"/>
<path d="M231.361 19.962L235.636 13.3409L226.552 0.459947L222.277 7.08099L231.361 19.962ZM226.819 13.5215L222.277 7.08099L150.422 118.383L154.964 124.824L159.506 131.264L231.361 19.962L226.819 13.5215Z" fill="#585858"/>
<path d="M315.726 479.093L320.267 485.533L328.816 472.291L324.274 465.851L315.726 479.093ZM320 472.472L324.274 465.851L249.174 359.358L244.899 365.979L240.625 372.6L315.726 479.093L320 472.472Z" fill="#585858"/>
<path d="M307.845 354.049L312.387 360.49L320.936 347.248L316.394 340.807L307.845 354.049ZM312.119 347.428L316.394 340.807L241.293 234.314L237.018 240.935L232.744 247.556L307.845 354.049L312.119 347.428Z" fill="#585858"/>
<path d="M307.295 122.114L311.837 128.554L320.386 115.312L315.844 108.872L307.295 122.114ZM311.57 115.493L315.844 108.872L240.743 2.37897L236.469 9.00001L232.194 15.6211L307.295 122.114L311.57 115.493Z" fill="#585858"/>
<path d="M69.1443 472.623L73.7798 478.997L82.1429 465.637L77.5074 459.263L69.1443 472.623ZM73.3258 465.943L77.5074 459.263L39.0298 406.36L34.8482 413.04L30.6667 419.721L69.1443 472.623L73.3258 465.943Z" fill="#585858"/>
<path d="M226.81 479.152L231.446 485.525L239.809 472.165L235.173 465.792L226.81 479.152ZM230.992 472.472L235.173 465.792L196.696 412.889L192.514 419.569L188.333 426.249L226.81 479.152L230.992 472.472Z" fill="#585858"/>
<path d="M113.473 300.142L117.655 293.462L108.384 280.715L104.202 287.396L113.473 300.142ZM73.1416 350.794L77.7772 357.168L113.473 300.142L108.838 293.769L104.202 287.396L68.506 344.421L73.1416 350.794Z" fill="#585858"/>
<path d="M276.886 298.837L281.068 292.157L271.797 279.41L267.615 286.091L276.886 298.837ZM236.555 349.489L241.19 355.863L276.886 298.837L272.251 292.464L267.615 286.091L231.919 343.116L236.555 349.489Z" fill="#585858"/>
<path d="M271.323 57.6827L275.505 51.0026L266.234 38.2557L262.052 44.9358L271.323 57.6827ZM230.992 108.334L235.627 114.708L271.323 57.6827L266.688 51.3092L262.052 44.9358L226.356 101.961L230.992 108.334Z" fill="#A01E1E"/>
<path d="M113.473 61.0487L117.655 54.3685L108.384 41.6216L104.202 48.3018L113.473 61.0487ZM73.1416 111.7L77.7772 118.074L113.473 61.0487L108.838 54.6752L104.202 48.3018L68.506 105.327L73.1416 111.7Z" fill="#585858"/>
<path d="M225.373 235.591L230.008 241.964L238.371 228.604L233.736 222.231L225.373 235.591ZM229.554 228.911L233.736 222.231L195.258 169.328L191.076 176.008L186.895 182.688L225.373 235.591L229.554 228.911Z" fill="#585858"/>
<path d="M59.9193 235.248L64.5548 241.622L72.918 228.262L68.2824 221.888L59.9193 235.248ZM64.1008 228.568L68.2824 221.888L29.8048 168.985L25.6232 175.665L21.4417 182.346L59.9193 235.248L64.1008 228.568Z" fill="black"/>
<path d="M151.067 126.923L155.609 133.364L164.158 120.122L159.616 113.681L151.067 126.923ZM155.341 120.302L159.616 113.681L84.5151 7.1883L80.2406 13.8093L75.9661 20.4304L151.067 126.923L155.341 120.302Z" fill="#585858"/>
<path d="M147.444 242.747L151.986 249.188L160.535 235.945L155.993 229.505L147.444 242.747ZM151.719 236.126L155.993 229.505L80.8922 123.012L76.6177 129.633L72.3432 136.254L147.444 242.747L151.719 236.126Z" fill="#A01E1E"/>
<path d="M147.665 353.5L152.43 359.777L160.537 346.26L155.772 339.983L147.665 353.5ZM151.719 346.741L155.772 339.983L80.6713 241.047L76.6177 247.806L72.5641 254.564L147.665 353.5L151.719 346.741Z" fill="black"/>
<path d="M151.153 483.902L155.695 490.342L164.244 477.1L159.702 470.66L151.153 483.902ZM155.427 477.281L159.702 470.66L84.6009 364.167L80.3264 370.788L76.0519 377.409L151.153 483.902L155.427 477.281Z" fill="#585858"/>
<path d="M228.58 131.264L232.854 124.643L223.77 111.762L219.496 118.383L228.58 131.264ZM224.038 124.824L219.496 118.383L147.64 229.685L152.182 236.126L156.724 242.566L228.58 131.264L224.038 124.824Z" fill="#A01E1E"/>
<path d="M228.774 249.564L233.049 242.943L223.965 230.062L219.69 236.683L228.774 249.564ZM224.232 243.124L219.69 236.683L147.834 347.985L152.376 354.426L156.918 360.866L228.774 249.564L224.232 243.124Z" fill="black"/>
<path d="M230.898 372.419L235.172 365.798L226.088 352.917L221.814 359.538L230.898 372.419ZM226.356 365.979L221.814 359.538L149.958 470.841L154.5 477.281L159.042 483.722L230.898 372.419L226.356 365.979Z" fill="#585858"/>
<path d="M71.6186 126.582L75.8931 119.961L66.8092 107.08L62.5347 113.701L71.6186 126.582ZM67.0767 120.141L62.5347 113.701L-9.32105 225.003L-4.77909 231.444L-0.237129 237.884L71.6186 126.582L67.0767 120.141Z" fill="#585858"/>
<path d="M68.6428 261.117L72.9173 254.496L63.8334 241.615L59.5589 248.236L68.6428 261.117ZM64.1008 254.676L59.5589 248.236L-12.2969 359.538L-7.75492 365.979L-3.21296 372.419L68.6428 261.117L64.1008 254.676Z" fill="#585858"/>
<path d="M71.155 372.546L75.4295 365.925L66.3456 353.044L62.0711 359.665L71.155 372.546ZM66.613 366.106L62.0711 359.665L-9.78468 470.967L-5.24271 477.408L-0.700752 483.848L71.155 372.546L66.613 366.106Z" fill="#585858"/>
</svg>
